<mxfile host="app.diagrams.net" modified="2024-01-16T16:30:40.191Z" agent="Mozilla/5.0 (Macintosh; Intel Mac OS X 10_15_7) AppleWebKit/537.36 (KHTML, like Gecko) Chrome/120.0.0.0 Safari/537.36" version="22.1.19" etag="sOnJl700CR7XBGyFxkJs" type="github">
  <diagram name="Page-1" id="cn7LealxM44wvplABu2n">
    <mxGraphModel>
      <root>
        <mxCell id="0" />
        <mxCell id="1" parent="0" />
      </root>
    </mxGraphModel>
  </diagram>
</mxfile>
